<?xml version="1.0" encoding="UTF-8"?>
<svg version="1.1" xmlns="http://www.w3.org/2000/svg" width="486" height="424">
<path d="M0 0 C160.38 0 320.76 0 486 0 C486 139.92 486 279.84 486 424 C325.62 424 165.24 424 0 424 C0 284.08 0 144.16 0 0 Z " fill="#FBFAF5" transform="translate(0,0)"/>
<path d="M0 0 C2.02283107 1.09783696 4.06571856 2.13656362 6.12695312 3.16015625 C15.60434747 7.91179426 25.00401694 12.86327441 29.3059082 23.07202148 C31.12166385 30.24170816 30.47763657 37.8489813 30.33007812 45.19140625 C30.30998433 46.93292219 30.29173865 48.67446049 30.27539062 50.41601562 C30.23161806 54.65420402 30.16275061 58.89130546 30.08007812 63.12890625 C21.47596002 64.33758549 12.87178249 65.54584126 4.26757812 66.75390625 C2.33321396 67.02551575 2.33321396 67.02551575 0.35977173 67.3026123 C-12.85779353 69.15833569 -26.07544265 71.01341872 -39.29492188 72.85546875 C-40.23905441 72.98704376 -41.18318695 73.11861877 -42.15592957 73.25418091 C-46.45646515 73.8533414 -50.75709166 74.45183853 -55.05786133 75.04931641 C-64.28387928 76.33268484 -73.50631368 77.63966932 -82.72705078 78.96044922 C-97.52915574 81.07759956 -112.33537603 83.16493787 -127.14257812 85.24609375 C-129.86934598 85.62951775 -132.59610272 86.01302077 -135.32286072 86.39651489 C-141.00109903 87.19505891 -146.67937141 87.99336026 -152.35766602 88.79150391 C-158.08068369 89.59593624 -163.80366626 90.40061767 -169.52661133 91.20556641 C-197.23049935 95.10218241 -224.9344743 98.997989 -252.64367294 102.85670471 C-262.51279646 104.23112641 -272.38028024 105.61552963 -282.24414062 107.02734375 C-284.86136897 107.40018787 -287.47864595 107.77268805 -290.09594727 108.14501953 C-291.83317767 108.39326768 -293.57014086 108.64339036 -295.30688477 108.89501953 C-297.9519328 109.27759033 -300.59789888 109.65313159 -303.24414062 110.02734375 C-304.39072395 110.19597427 -304.39072395 110.19597427 -305.56047058 110.36801147 C-318.94400429 112.23704528 -318.94400429 112.23704528 -324.24414062 109.265625 C-325.32211914 108.6768457 -325.32211914 108.6768457 -326.421875 108.07617188 C-327.14310547 107.66044922 -327.86433594 107.24472656 -328.60742188 106.81640625 C-329.34025391 106.41228516 -330.07308594 106.00816406 -330.828125 105.59179688 C-332.87198419 104.4583673 -334.90092836 103.30601617 -336.91992188 102.12890625 C-337.81437012 101.71543945 -338.70881836 101.30197266 -339.63037109 100.87597656 C-341.91992188 99.12890625 -341.91992188 99.12890625 -342.51928711 96.31665039 C-342.50583252 95.19379639 -342.49237793 94.07094238 -342.47851562 92.9140625 C-342.46788086 91.04717773 -342.46788086 91.04717773 -342.45703125 89.14257812 C-342.42416016 87.83869141 -342.39128906 86.53480469 -342.35742188 85.19140625 C-342.35162109 83.92232422 -342.34582031 82.65324219 -342.33984375 81.34570312 C-342.14795315 66.385912 -340.73281182 53.91791043 -330.10742188 42.75390625 C-319.48272731 32.81367225 -306.52836779 31.40618168 -292.45117188 30.37109375 C-289.94740262 30.13153558 -287.56993928 29.69793673 -285.10742188 29.19140625 C-271.30938182 26.53488704 -256.92412941 26.03702892 -242.91992188 25.12890625 C-242.91992188 24.46890625 -242.91992188 23.80890625 -242.91992188 23.12890625 C-239.28992188 23.12890625 -235.65992188 23.12890625 -231.91992188 23.12890625 C-231.08986321 45.58660457 -231.08986321 45.58660457 -235.91992188 52.12890625 C-238.13715563 54.11401084 -240.42859315 55.84083659 -242.85742188 57.55859375 C-245.75825725 59.76718432 -246.87490985 61.64553282 -247.91992188 65.12890625 C-248.63212259 70.84715547 -248.19162187 75.22135626 -244.91992188 80.12890625 C-243.05632342 82.27921216 -241.73403927 82.98410276 -238.94335938 83.48046875 C-233.67758929 83.82428192 -229.95028048 82.78707258 -225.64257812 79.73828125 C-221.03920961 75.43762858 -219.66793143 69.81819401 -218.55273438 63.81640625 C-217.91992188 61.12890625 -217.91992188 61.12890625 -216.72460938 57.87890625 C-212.19564069 45.45659215 -212.00005599 33.26461537 -211.91992188 20.12890625 C-201.78732192 16.68449108 -192.06910588 15.58612853 -181.42602539 14.92285156 C-169.32254199 14.12598598 -157.39601882 12.33433703 -145.41821289 10.46435547 C-142.91992188 10.12890625 -142.91992188 10.12890625 -139.91992188 10.12890625 C-139.16427938 28.79607447 -139.16427938 28.79607447 -142.91992188 37.12890625 C-145.07523321 39.11277237 -147.19547357 40.41475555 -149.75585938 41.82421875 C-153.18680623 43.89269574 -154.78987842 46.31968691 -155.91992188 50.12890625 C-156.70399871 55.32032025 -156.54618499 58.95988176 -154.04492188 63.62890625 C-151.5525399 66.94246984 -151.5525399 66.94246984 -147.96679688 68.4296875 C-141.22656004 68.46407646 -137.19463699 67.35072101 -132.23242188 62.50390625 C-129.33919775 58.72893764 -128.25490267 54.63605571 -126.91992188 50.12890625 C-125.83285125 46.89807833 -124.73724228 43.6704753 -123.6328125 40.44555664 C-121.83800456 35.11075562 -120.82332805 30.23029285 -120.60351562 24.609375 C-120.56162109 23.58779297 -120.51972656 22.56621094 -120.4765625 21.51367188 C-120.43724609 20.45857422 -120.39792969 19.40347656 -120.35742188 18.31640625 C-120.29264648 16.70475586 -120.29264648 16.70475586 -120.2265625 15.06054688 C-120.12081204 12.41678543 -120.01871954 9.77293515 -119.91992188 7.12890625 C-103.81001509 4.40354608 -87.69417651 1.85901896 -71.48242188 -0.18359375 C-70.80614746 -0.27040405 -70.12987305 -0.35721436 -69.43310547 -0.44665527 C-62.56240679 -1.32372116 -55.85043375 -2.10765989 -48.91992188 -1.87109375 C-48.86182528 2.04551055 -48.82629295 5.96200388 -48.79492188 9.87890625 C-48.77816406 10.99007812 -48.76140625 12.10125 -48.74414062 13.24609375 C-48.73769531 14.31601563 -48.73125 15.3859375 -48.72460938 16.48828125 C-48.71413574 17.47280273 -48.70366211 18.45732422 -48.69287109 19.47167969 C-48.92956709 22.24178634 -49.37679416 23.83007982 -50.91992188 26.12890625 C-51.84804688 26.58265625 -52.77617187 27.03640625 -53.73242188 27.50390625 C-58.07365116 29.71708196 -60.71408941 32.71724131 -62.91992188 37.12890625 C-63.06844032 39.06250211 -63.1412302 41.00232722 -63.16992188 42.94140625 C-63.19570313 43.97910156 -63.22148437 45.01679687 -63.24804688 46.0859375 C-62.79245674 50.3109936 -61.03154621 52.84626278 -58.29492188 56.00390625 C-54.45627713 57.82221165 -50.95657334 57.16088497 -46.91992188 56.12890625 C-39.10474096 52.00013143 -36.14179606 46.04158069 -33.29492188 38.06640625 C-32.9893335 37.21151611 -32.68374512 36.35662598 -32.36889648 35.47583008 C-27.57048847 21.68578715 -27.6689394 8.59321926 -27.91992188 -5.87109375 C-16.88662479 -8.67541405 -9.62844872 -5.30418744 0 0 Z " fill="#C53721" transform="translate(397.919921875,68.87109375)"/>
<path d="M0 0 C3.12155848 1.23070708 6.09131935 2.51013409 9.03125 4.12890625 C9.75957031 4.52400391 10.48789063 4.91910156 11.23828125 5.32617188 C12.74774078 6.15129094 14.25555565 6.97942579 15.76171875 7.81054688 C19.48839498 9.8255904 22.71987161 11.51593786 27 12 C26.01 12.33 25.02 12.66 24 13 C24.03717365 38.28676418 24.09704485 63.57338659 24.18390274 88.86003113 C24.22370419 100.60118844 24.25609111 112.34227861 24.27099609 124.08349609 C24.28400682 134.31769626 24.31095684 144.55174877 24.35461307 154.78586578 C24.37724073 160.2042723 24.39290989 165.62249663 24.39188385 171.04095459 C24.39113802 176.14309116 24.40905813 181.24482476 24.44116783 186.34685707 C24.44967231 188.21726964 24.45141304 190.08772738 24.44580269 191.95815086 C24.43914947 194.5175724 24.45711416 197.07571676 24.48101807 199.63500977 C24.46937744 200.73815804 24.46937744 200.73815804 24.45750165 201.86359215 C24.5369866 206.6905634 25.68235831 210.04205954 28.04558921 214.25111294 C29 216 29 216 30 219 C24.74268636 217.48011312 20.27483279 215.14990376 15.5625 212.4375 C14.47485352 211.8487207 14.47485352 211.8487207 13.36523438 211.24804688 C7.54628951 207.89679471 2.92791862 204.14951345 0 198 C-1.3010015 191.72689221 -0.88497246 185.17101029 -0.79467773 178.80249023 C-0.79270135 176.85044934 -0.7938152 174.89840324 -0.79777527 172.94636536 C-0.79977843 167.66561522 -0.75871018 162.38598484 -0.70975757 157.10549426 C-0.66590979 151.58023981 -0.66187945 146.05495787 -0.65357971 140.52955627 C-0.6318489 130.07481567 -0.57444063 119.62058929 -0.50413328 109.16607481 C-0.42581046 97.26048221 -0.3873833 85.35486466 -0.35226524 73.44907844 C-0.27915607 48.96576754 -0.15608196 24.48291262 0 0 Z " fill="#C3C2C2" transform="translate(56,168)"/>
<path d="M0 0 C11.40421764 9.40896859 16.9864001 21.18792164 19.375 35.75 C19.375 36.74 19.375 37.73 19.375 38.75 C20.035 38.585 20.695 38.42 21.375 38.25 C25.10599794 37.62816701 28.59373378 37.68591074 32.375 37.75 C32.375 38.08 32.375 38.41 32.375 38.75 C26.435 39.245 26.435 39.245 20.375 39.75 C20.42140625 41.23628906 20.4678125 42.72257812 20.515625 44.25390625 C20.77656112 56.22786322 20.30938777 66.35105461 16.375 77.75 C16.03984375 78.86117187 15.7046875 79.97234375 15.359375 81.1171875 C12.73639733 89.63145629 9.55938645 95.39992498 2.375 100.75 C-1.71084869 102.11194956 -5.37261587 102.66277751 -9.625 101.75 C-13.12052304 98.98542484 -16.31046965 95.1673904 -16.8984375 90.6484375 C-17.16464583 84.0341843 -16.07331803 79.74052595 -11.625 74.75 C-5.95590024 69.75 -5.95590024 69.75 -2.625 69.75 C-1.74238717 63.95338062 -1.1296355 58.14769416 -0.5625 52.3125 C-0.47162109 51.39017578 -0.38074219 50.46785156 -0.28710938 49.51757812 C-0.06504277 47.26184893 0.15562748 45.00599252 0.375 42.75 C-0.90890625 43.0490625 -2.1928125 43.348125 -3.515625 43.65625 C-8.44409217 44.74719675 -13.37560346 45.56196238 -18.375 46.25 C-19.29297363 46.37673096 -20.21094727 46.50346191 -21.15673828 46.6340332 C-33.9212993 48.29618411 -46.78084085 48.99485997 -59.625 49.75 C-60.01619141 30.50973525 -55.3738287 16.50874149 -42.1875 2.16015625 C-30.3046563 -9.0162379 -12.93497328 -9.56156663 0 0 Z " fill="#8A8888" transform="translate(257.625,36.25)"/>
<path d="M0 0 C9.27978848 6.21402132 15.40613646 13.82681814 19.01171875 24.515625 C20.6645341 29.39858468 20.6645341 29.39858468 22.53515625 34.19921875 C23.38671875 36.453125 23.38671875 36.453125 23.38671875 39.453125 C26.35671875 39.453125 29.32671875 39.453125 32.38671875 39.453125 C32.38671875 39.783125 32.38671875 40.113125 32.38671875 40.453125 C27.93171875 40.948125 27.93171875 40.948125 23.38671875 41.453125 C23.41290283 42.12666016 23.43908691 42.80019531 23.46606445 43.49414062 C23.88660313 55.98893039 24.08827159 67.20850608 19.67578125 79.00390625 C18.43725941 82.31789045 17.66247619 85.4942561 16.94921875 88.953125 C15.30182068 95.75558333 12.28180594 100.39439633 6.57421875 104.453125 C1.87481634 105.92744732 -2.89716766 106.85443201 -7.453125 104.50390625 C-11.50812674 101.36103204 -13.20123326 98.39390587 -13.8984375 93.41796875 C-14.25183008 88.1352027 -13.24328662 84.63146137 -10.24609375 80.28125 C-7.98865253 77.75377992 -5.4094799 76.04432851 -2.48046875 74.36328125 C2.8073058 68.95382151 2.88009559 60.53990358 3.07421875 53.390625 C3.10837891 52.52501953 3.14253906 51.65941406 3.17773438 50.76757812 C3.25911989 48.66318113 3.32461644 46.5581793 3.38671875 44.453125 C-0.24328125 44.453125 -3.87328125 44.453125 -7.61328125 44.453125 C-7.61328125 45.113125 -7.61328125 45.773125 -7.61328125 46.453125 C-19.73934484 48.33022463 -31.82210515 49.85885782 -44.05883789 50.80615234 C-44.9739917 50.87785645 -45.88914551 50.94956055 -46.83203125 51.0234375 C-47.63576172 51.08289551 -48.43949219 51.14235352 -49.26757812 51.20361328 C-51.75905051 51.46863043 -54.16482303 51.92682597 -56.61328125 52.453125 C-56.03619566 33.5286977 -53.16176769 19.45263915 -39.7890625 5.46875 C-28.34183754 -5.13586055 -13.69979623 -8.10929642 0 0 Z " fill="#8B8989" transform="translate(162.61328125,47.546875)"/>
<path d="M0 0 C1.07217773 0.00773437 1.07217773 0.00773437 2.16601562 0.015625 C7.37588071 0.09419035 7.37588071 0.09419035 9.6875 1.25 C9.6875 1.91 9.6875 2.57 9.6875 3.25 C10.25726563 3.36085938 10.82703125 3.47171875 11.4140625 3.5859375 C20.20386323 6.15340507 26.45459901 13.22208822 30.796875 20.90234375 C34.81950864 28.34692617 37.6875 34.62137033 37.6875 43.25 C38.24953125 43.08628906 38.8115625 42.92257813 39.390625 42.75390625 C41.81809056 42.22135003 43.95639681 42.15101319 46.4375 42.1875 C47.23671875 42.19652344 48.0359375 42.20554688 48.859375 42.21484375 C49.46265625 42.22644531 50.0659375 42.23804688 50.6875 42.25 C50.6875 42.58 50.6875 42.91 50.6875 43.25 C44.7475 43.745 44.7475 43.745 38.6875 44.25 C39.0175 45.24 39.3475 46.23 39.6875 47.25 C40.61741268 65.20446794 39.20606467 87.11247541 27.62890625 101.875 C23.43840759 105.67734283 19.38403697 107.78103705 13.8125 108.75 C9.34750276 108.03560044 6.64463148 105.59815713 3.6875 102.25 C1.69096399 96.26039198 1.61037699 89.52852945 4.3125 83.8125 C7.71931341 80.13672764 10.83340944 76.86803019 15.6875 75.25 C16.70337978 72.20236066 16.88554406 69.90281033 17.00390625 66.70703125 C17.06674805 65.09731445 17.06674805 65.09731445 17.13085938 63.45507812 C17.17017578 62.33552734 17.20949219 61.21597656 17.25 60.0625 C17.31477539 58.36577148 17.31477539 58.36577148 17.38085938 56.63476562 C17.48699099 53.83996646 17.58904385 51.04507838 17.6875 48.25 C17.01986633 48.33769653 16.35223267 48.42539307 15.66436768 48.51574707 C8.72195821 49.42715144 1.77908779 50.33497955 -5.1640625 51.24072266 C-7.7559797 51.57932106 -10.34777756 51.91883432 -12.93945312 52.25927734 C-16.66245093 52.74817024 -20.38586408 53.23378262 -24.109375 53.71875 C-25.26991394 53.87186646 -26.43045288 54.02498291 -27.62615967 54.18273926 C-28.70697815 54.32288452 -29.78779663 54.46302979 -30.90136719 54.60742188 C-31.85178894 54.73177612 -32.80221069 54.85613037 -33.78143311 54.98425293 C-36.3125 55.25 -36.3125 55.25 -40.3125 55.25 C-41.11790822 38.87336627 -37.24872738 25.09957459 -26.375 12.375 C-18.87034143 4.38524943 -11.12065706 -0.32980633 0 0 Z " fill="#8C8988" transform="translate(331.3125,18.75)"/>
<path d="M0 0 C3.63 0 7.26 0 11 0 C11 6.27 11 12.54 11 19 C10.505 17.515 10.505 17.515 10 16 C9.36835938 16.12769775 8.73671875 16.25539551 8.0859375 16.38696289 C0.41997405 17.86644413 -7.23171932 18.70354597 -15 19.4375 C-44.16187239 21.34753963 -44.16187239 21.34753963 -67.625 37 C-74.57653349 47.4551175 -74.6401363 59.74921019 -74.75 71.8125 C-74.77823646 73.39130758 -74.80817422 74.97008568 -74.83984375 76.54882812 C-74.91278581 80.3658308 -74.96290883 84.18248759 -75 88 C-78.73537897 86.83005112 -82.11639699 85.54290605 -85.5234375 83.6171875 C-86.31621094 83.17246094 -87.10898438 82.72773438 -87.92578125 82.26953125 C-88.73402344 81.80933594 -89.54226562 81.34914063 -90.375 80.875 C-91.62216797 80.17310547 -91.62216797 80.17310547 -92.89453125 79.45703125 C-94.93234954 78.30929451 -96.96735569 77.15686718 -99 76 C-99.050211 72.08972165 -99.08609395 68.17957344 -99.10986328 64.26904297 C-99.12462224 62.30038843 -99.15006161 60.3318231 -99.17578125 58.36328125 C-99.25231867 43.2854092 -97.90252536 30.88318332 -87.1875 19.625 C-76.56280544 9.684766 -63.60844591 8.27727543 -49.53125 7.2421875 C-47.02748075 7.00262933 -44.65001741 6.56903048 -42.1875 6.0625 C-28.38945995 3.40598079 -14.00420754 2.90812267 0 2 C0 1.34 0 0.68 0 0 Z " fill="#882D21" transform="translate(155,92)"/>
<path d="M0 0 C5.68080579 1.29615533 9.15872054 3.55220273 13 8 C13.47050781 8.48082031 13.94101562 8.96164063 14.42578125 9.45703125 C27.06744586 22.88267506 28.68085068 39.73134199 28.27734375 57.26953125 C27.73884625 71.06266435 23.2660394 84.49722023 14 95 C11.29120665 96.35439668 8.99066732 96.06501451 6 96 C4.44975536 92.89951072 4.71007985 90.42105782 5 87 C6.28062485 85.2925002 7.62631655 83.63356951 9 82 C14.02225749 72.51018211 16.37128743 63.86283249 16.25 53.1875 C16.24105713 52.30239746 16.23211426 51.41729492 16.22290039 50.50537109 C16.00229291 38.06219485 13.82152357 25.74674171 5.30078125 16.0703125 C1.59109184 13.14752691 -2.36112852 12.2174606 -6.984375 11.5546875 C-9.45423148 10.87499831 -10.44801809 10.01950441 -12 8 C-12.375 4.9375 -12.375 4.9375 -12 2 C-7.91385154 -0.72409898 -4.7930027 -0.49716722 0 0 Z " fill="#C5C7C9" transform="translate(245,35)"/>
<path d="M0 0 C7.85469703 -0.98183713 14.43801756 1.30292422 20.71875 6.05859375 C32.44899743 16.28805952 37.22993248 28.75143665 39 44 C39.8018195 63.00125735 36.926101 78.04214197 26 94 C23.61638656 96.12078154 22.54598991 96.92200144 19.375 97.375 C18.199375 97.189375 18.199375 97.189375 17 97 C14.9081114 93.8621671 14.63947079 92.68933025 15.2578125 89.0546875 C16.19212487 86.46811745 17.6159886 84.72500595 19.3125 82.5625 C28.45438506 70.1287839 28.21060369 53.43482953 26.375 38.75 C24.72199027 30.15669412 20.88943536 21.58602867 14 16 C13.01 15.34 12.02 14.68 11 14 C11 13.34 11 12.68 11 12 C9.4221875 12.0928125 9.4221875 12.0928125 7.8125 12.1875 C3.76483392 11.98843446 2.02094515 11.66553984 -1 9 C-1.9375 6 -1.9375 6 -2 3 C-1.34 2.01 -0.68 1.02 0 0 Z " fill="#C4C6C9" transform="translate(327,24)"/>
<path d="M0 0 C4.6296487 0.06692002 7.79054742 0.74420644 11.75 3.3125 C11.75 3.9725 11.75 4.6325 11.75 5.3125 C12.28625 5.539375 12.8225 5.76625 13.375 6 C23.22579142 11.44385842 27.69092661 19.79605416 30.75 30.3125 C34.37760954 43.96214947 33.52542485 59.40737257 31.75 73.3125 C31.09 73.3125 30.43 73.3125 29.75 73.3125 C29.64042969 74.17875 29.53085938 75.045 29.41796875 75.9375 C27.81653532 84.0289531 23.47407236 92.40953057 16.75 97.3125 C13.4375 97.3125 13.4375 97.3125 10.75 96.3125 C9.29112611 93.39475221 9.38176767 91.56521895 9.75 88.3125 C11.13289575 85.73763068 12.70500982 83.4070657 14.75 81.3125 C15.41 81.3125 16.07 81.3125 16.75 81.3125 C16.91435547 80.49458984 16.91435547 80.49458984 17.08203125 79.66015625 C17.31986328 78.52900391 17.31986328 78.52900391 17.5625 77.375 C17.71332031 76.64410156 17.86414063 75.91320312 18.01953125 75.16015625 C18.64887958 72.70670743 19.42886939 70.44809629 20.296875 68.07421875 C21.89496481 63.33777655 22.25072279 59.03654027 22.1875 54.0625 C22.18210205 53.23838623 22.1767041 52.41427246 22.17114258 51.56518555 C21.99265725 44.32206743 20.37941975 38.06005509 17.75 31.3125 C17.4096875 30.17941406 17.4096875 30.17941406 17.0625 29.0234375 C15.17392314 22.90916991 11.20326877 17.21817029 5.52734375 14.0859375 C4.94082031 13.83070312 4.35429687 13.57546875 3.75 13.3125 C3.75 12.6525 3.75 11.9925 3.75 11.3125 C3.03972656 11.17972656 2.32945312 11.04695313 1.59765625 10.91015625 C0.67855469 10.73355469 -0.24054688 10.55695312 -1.1875 10.375 C-2.10402344 10.20097656 -3.02054688 10.02695312 -3.96484375 9.84765625 C-6.25 9.3125 -6.25 9.3125 -7.25 8.3125 C-7.4375 5.375 -7.4375 5.375 -7.25 2.3125 C-4.67767294 -0.25982706 -3.57102308 0.01463534 0 0 Z " fill="#C4C6C9" transform="translate(148.25,47.6875)"/>
<path d="M0 0 C0.02692484 2.29160319 0.04636124 4.58329546 0.0625 6.875 C0.07410156 8.15117188 0.08570313 9.42734375 0.09765625 10.7421875 C0 14 0 14 -1 16 C-3.80016573 16.51417911 -6.53106326 16.9014773 -9.35546875 17.21875 C-10.20869217 17.32215698 -11.06191559 17.42556396 -11.94099426 17.53210449 C-14.68887386 17.86340524 -17.43804315 18.18207977 -20.1875 18.5 C-22.88216464 18.81957896 -25.57650636 19.14176297 -28.27078247 19.46459961 C-30.03253558 19.6753365 -31.79447891 19.8844893 -33.55661011 20.09204102 C-39.7212126 20.82369268 -45.85354722 21.67992647 -51.9855957 22.65039062 C-55.34558926 23.0400813 -58.62045933 23.05718612 -62 23 C-62 23.66 -62 24.32 -62 25 C-64.97 25 -67.94 25 -71 25 C-71 27.64 -71 30.28 -71 33 C-71.33 33 -71.66 33 -72 33 C-72 25.41 -72 17.82 -72 10 C-61.74024183 6.72560909 -52.24181914 5.4629953 -41.50610352 4.79394531 C-29.40262011 3.99707973 -17.47609694 2.20543078 -5.49829102 0.33544922 C-3 0 -3 0 0 0 Z " fill="#872C21" transform="translate(258,79)"/>
<path d="M0 0 C0 4.95 0 9.9 0 15 C-5.38412669 16.49126535 -10.19637149 17.25562341 -15.8125 17.4375 C-23.63852566 17.785016 -31.20771008 18.87546503 -38.92578125 20.16796875 C-44.5616185 21.10969537 -50.21453182 21.90942555 -55.875 22.6875 C-56.80852295 22.81882324 -57.7420459 22.95014648 -58.70385742 23.08544922 C-60.02220581 23.26551514 -60.02220581 23.26551514 -61.3671875 23.44921875 C-62.52903564 23.60910278 -62.52903564 23.60910278 -63.71435547 23.7722168 C-66.13211366 24.01316621 -68.57026519 24 -71 24 C-71 19.05 -71 14.1 -71 9 C-54.88771344 6.28494619 -38.77504643 3.73021248 -22.5625 1.6875 C-21.88622559 1.6006897 -21.20995117 1.51387939 -20.51318359 1.42443848 C-13.64248491 0.54737259 -6.93051187 -0.23656614 0 0 Z " fill="#872B1E" transform="translate(349,67)"/>
<path d="M0 0 C2.38791569 3.66451024 2.11155915 6.7992549 1.94921875 11.07421875 C1.9347168 12.22567383 1.9347168 12.22567383 1.91992188 13.40039062 C1.85443834 16.66602599 1.67472767 19.397692 0.63671875 22.51171875 C-0.02328125 22.51171875 -0.68328125 22.51171875 -1.36328125 22.51171875 C-1.79640625 23.40890625 -1.79640625 23.40890625 -2.23828125 24.32421875 C-4.79780674 29.30107386 -4.79780674 29.30107386 -7.32421875 30.2421875 C-23.97337693 33.39421259 -23.97337693 33.39421259 -29.234375 30.47265625 C-33.54922951 25.70553654 -32.92347899 19.19853071 -32.9296875 13.1328125 C-32.12517948 7.98950949 -29.47796679 3.7507148 -25.36328125 0.51171875 C-18.39561427 -2.00363593 -6.44605119 -4.05941406 0 0 Z " fill="#CFCFCE" transform="translate(154.36328125,318.48828125)"/>
<path d="M0 0 C0 0.66 0 1.32 0 2 C0.639375 2.226875 1.27875 2.45375 1.9375 2.6875 C4 4 4 4 4.609375 6.1796875 C6.58412176 20.43735912 6.58412176 20.43735912 3.125 25.8125 C2.42375 26.534375 1.7225 27.25625 1 28 C0.34 28 -0.32 28 -1 28 C-1 28.66 -1 29.32 -1 30 C-8.29130334 32.9659539 -15.13235508 34.21446868 -23 33 C-26.97897898 30.44744745 -26.97897898 30.44744745 -28 27 C-28.85902603 18.92515531 -29.06600766 10.85440963 -23.8125 4.25 C-16.77120545 -1.38303564 -8.61410887 -0.21505404 0 0 Z " fill="#CECECE" transform="translate(151,270)"/>
<path d="M0 0 C3.52651058 5.3798592 2.52836481 12.85927749 1.8125 18.9375 C0.64336001 22.79939325 -1.22328463 25.11508101 -4.3125 27.75 C-9.95145717 30.07913448 -15.93240627 31.00192983 -22 31.4375 C-22.68707031 31.4890625 -23.37414062 31.540625 -24.08203125 31.59375 C-27.57308446 30.50562952 -29.47770573 28.02916004 -31.1875 24.9375 C-31.66051172 22.02304267 -31.8501742 19.81818512 -31.75 16.9375 C-31.76095703 16.25171875 -31.77191406 15.5659375 -31.78320312 14.859375 C-31.69835239 8.9311373 -29.53009663 5.36685947 -25.5 1.1875 C-18.28417916 -2.7129437 -7.04562222 -4.55893203 0 0 Z " fill="#CECECE" transform="translate(205.1875,310.0625)"/>
<path d="M0 0 C3.88005814 4.5267345 3.32242348 9.95579863 3.29296875 15.65234375 C2.69364335 20.72140439 0.73082524 23.89766746 -3.125 27.1875 C-8.03184612 29.98337026 -13.06440777 30.29088355 -18.625 30.5625 C-19.5221875 30.61148438 -20.419375 30.66046875 -21.34375 30.7109375 C-25.21277376 29.98277853 -27.82877576 28.33606755 -30.125 25.1875 C-30.92869869 22.33735982 -30.87781411 19.69228091 -30.75 16.75 C-30.75644531 16.01201172 -30.76289063 15.27402344 -30.76953125 14.51367188 C-30.66838344 9.34134065 -29.51591517 6.27144892 -26.125 2.1875 C-19.02648735 -2.28764928 -7.50713969 -4.35414102 0 0 Z " fill="#CECECE" transform="translate(204.125,264.8125)"/>
<path d="M0 0 C-2.47362816 1.64908544 -4.47437131 2.65514453 -7.1875 3.75 C-11.86072145 5.8074412 -16.50301379 8.20862465 -20 12 C-21.27830757 15.95796835 -20.9792802 19.7550784 -20.8125 23.875 C-20.76783148 29.96906234 -21.19308395 33.24135493 -25 38 C-28.1420293 40.83751544 -30.71659878 41.56850135 -34.875 42.1875 C-36.38707031 42.42533203 -36.38707031 42.42533203 -37.9296875 42.66796875 C-41.01830044 43.00197905 -43.89881466 43.22120343 -47 43 C-49.57285724 40.827365 -51.48996919 39.02006162 -53 36 C-53.09791023 33.30170926 -53.1390625 30.63515539 -53.125 27.9375 C-53.12886719 27.19177734 -53.13273438 26.44605469 -53.13671875 25.67773438 C-53.12663501 20.12663501 -53.12663501 20.12663501 -52 19 C-49.13732433 18.92674832 -46.299281 18.90761795 -43.4375 18.9375 C-42.63119141 18.94201172 -41.82488281 18.94652344 -40.99414062 18.95117188 C-38.99606244 18.96299482 -36.99802217 18.98093086 -35 19 C-34.71640625 18.2265625 -34.4328125 17.453125 -34.140625 16.65625 C-32.68065754 13.25632578 -30.73175319 11.48341199 -28 9 C-27.154375 8.154375 -26.30875 7.30875 -25.4375 6.4375 C-18.31321506 0.65016313 -8.88462475 -0.70762498 0 0 Z " fill="#CECCCB" transform="translate(274,245)"/>
<path d="M0 0 C1.17175781 -0.07154297 1.17175781 -0.07154297 2.3671875 -0.14453125 C3.45193359 -0.21800781 3.45193359 -0.21800781 4.55859375 -0.29296875 C8.19737633 0.5550258 9.58791973 2.28117046 11.8046875 5.23046875 C12.48895158 8.07072795 12.46068299 10.75950097 12.3671875 13.66796875 C12.37814453 14.40595703 12.38910156 15.14394531 12.40039062 15.90429688 C12.33140938 21.07789 11.26508509 24.18418374 7.8046875 28.23046875 C2.55598242 31.72960547 -4.83830423 32.2971588 -11.0078125 32.73046875 C-11.69488281 32.78203125 -12.38195312 32.83359375 -13.08984375 32.88671875 C-16.58089696 31.79859827 -18.48551823 29.32212879 -20.1953125 26.23046875 C-20.66832422 23.31601142 -20.8579867 21.11115387 -20.7578125 18.23046875 C-20.76876953 17.5446875 -20.77972656 16.85890625 -20.79101562 16.15234375 C-20.71841513 11.07998913 -19.445389 8.07878942 -16.1953125 4.23046875 C-14.265625 3.0234375 -14.265625 3.0234375 -12.3203125 2.41796875 C-11.62035156 2.19882812 -10.92039063 1.9796875 -10.19921875 1.75390625 C-6.78795755 0.86285557 -3.50172847 0.36761918 0 0 Z " fill="#F6D652" transform="translate(241.1953125,300.76953125)"/>
<path d="M0 0 C6.19166072 3.59116322 9.28261814 9.51035202 12 16 C12.94858646 19.65431642 13.53126805 23.25961792 14 27 C6.94790984 28.4968878 -0.10628103 29.66334552 -7.25 30.625 C-8.20390625 30.7590625 -9.1578125 30.893125 -10.140625 31.03125 C-14.79558089 31.66484122 -19.28890398 32.17389952 -24 32 C-24.52216011 21.20869099 -22.02091691 12.3942014 -15 4 C-10.47105198 0.17732067 -5.88002944 -0.92960465 0 0 Z " fill="#FBFAF4" transform="translate(243,51)"/>
<path d="M0 0 C7.16449819 3.34518849 10.02227703 9.0058135 13 16 C13.37125 16.68320313 13.7425 17.36640625 14.125 18.0703125 C15.4596458 21.01368316 15.12229805 23.82025059 15 27 C7.94790984 28.4968878 0.89371897 29.66334552 -6.25 30.625 C-7.20390625 30.7590625 -8.1578125 30.893125 -9.140625 31.03125 C-13.79558089 31.66484122 -18.28890398 32.17389952 -23 32 C-23.7610863 23.01918162 -21.43329487 14.88324216 -16.21484375 7.4609375 C-11.55990053 2.02522885 -7.55329211 -1.48368238 0 0 Z " fill="#F8F8F2" transform="translate(150,64)"/>
<path d="M0 0 C0 0.66 0 1.32 0 2 C0.639375 2.28875 1.27875 2.5775 1.9375 2.875 C4 4 4 4 5 6 C5.66501695 14.30726096 5.72826818 20.97514442 1 28 C-3.82240616 31.21493744 -9.3272761 31.308872 -15 32 C-16.12341797 32.14888672 -16.12341797 32.14888672 -17.26953125 32.30078125 C-19.0625 32.4375 -19.0625 32.4375 -22 32 C-26.45392789 27.54607211 -27.18892548 24.41571813 -27.3125 18.25 C-27.27636919 12.36669921 -27.0403751 9.27125368 -23 5 C-22.5875 4.4225 -22.175 3.845 -21.75 3.25 C-15.58805747 -1.15138752 -7.17010346 -0.2151031 0 0 Z " fill="#F6D754" transform="translate(294,293)"/>
<path d="M0 0 C4.36409274 -0.25585133 5.99879461 -0.21129699 9.58203125 2.55078125 C13.41424885 7.70032365 13.06124529 13.05287046 12.58203125 19.23828125 C10.8563083 24.41545009 8.09024926 27.20390374 3.58203125 30.23828125 C0.39453125 31.05078125 0.39453125 31.05078125 -3.41796875 31.23828125 C-4.31386719 31.31175781 -5.20976562 31.38523438 -6.1328125 31.4609375 C-7.57333984 31.53634766 -7.57333984 31.53634766 -9.04296875 31.61328125 C-9.94273437 31.66226563 -10.8425 31.71125 -11.76953125 31.76171875 C-15.70038304 30.98482474 -17.06341675 29.43880503 -19.41796875 26.23828125 C-20.14498953 23.42107574 -20.1792442 20.7613322 -20.10546875 17.86328125 C-20.09692871 17.10466797 -20.08838867 16.34605469 -20.07958984 15.56445312 C-19.89558435 11.20493824 -19.46594073 8.17115744 -16.54296875 4.73828125 C-11.66356165 0.30674243 -6.27807921 0.61867986 0 0 Z " fill="#F6D752" transform="translate(240.41796875,210.76171875)"/>
<path d="M0 0 C3.93746156 -0.28499722 6.38673436 0.11800361 9.42578125 2.5390625 C13.65259386 6.97206109 13.37932838 11.26628564 13.34375 17.13671875 C12.82176265 21.6739934 11.04090681 24.87297386 7.98828125 28.2265625 C2.47718127 31.90062915 -5.48947438 33.10455693 -12.01171875 32.2265625 C-14.97663317 30.42212363 -17.43468153 28.38063695 -19.01171875 25.2265625 C-19.49152176 19.09137646 -19.9327608 13.28119476 -17.38671875 7.6015625 C-11.81386398 2.02870773 -7.63477671 0.85983893 0 0 Z " fill="#F6D754" transform="translate(285.01171875,203.7734375)"/>
<path d="M0 0 C3.94520571 5.29356715 2.86478621 11.63129601 2.16015625 17.8984375 C1.21630228 21.7049012 -0.39962101 23.8679333 -3.65234375 26.1953125 C-9.81467339 29.50303356 -17.00169658 30.14340138 -23.83984375 28.8984375 C-26.67964224 26.64568979 -27.68751782 25.3554153 -28.83984375 21.8984375 C-30.17014652 7.55137476 -30.17014652 7.55137476 -26.71484375 2.6484375 C-20.21027545 -3.38929576 -7.18918719 -5.3201963 0 0 Z " fill="#CECECE" transform="translate(295.83984375,251.1015625)"/>
<path d="M0 0 C3.15508716 2.59830707 4.00402224 4.67386061 4.4609375 8.73828125 C4.54233024 15.66480353 4.30725028 20.13010119 0.125 25.75 C-0.535 25.75 -1.195 25.75 -1.875 25.75 C-1.875 26.41 -1.875 27.07 -1.875 27.75 C-5.86860784 29.56527629 -9.51493137 30.30660319 -13.875 30.75 C-14.55175781 30.83894531 -15.22851562 30.92789063 -15.92578125 31.01953125 C-18 31.1875 -18 31.1875 -21.875 30.75 C-25.31826482 27.57045344 -27.12211519 25.37016212 -27.5390625 20.65625 C-27.55219979 19.18750104 -27.53870732 17.7182976 -27.5 16.25 C-27.51933594 15.51652344 -27.53867187 14.78304688 -27.55859375 14.02734375 C-27.52366805 10.12265048 -27.07562138 7.47610596 -24.66796875 4.3359375 C-18.59010431 -1.29139992 -7.69876435 -3.34728885 0 0 Z " fill="#F6D754" transform="translate(339.875,287.25)"/>
<path d="M0 0 C3.15508716 2.59830707 4.00402224 4.67386061 4.4609375 8.73828125 C4.54162565 15.60484285 4.58484445 20.35124093 0.125 25.75 C-6.0728363 29.88189087 -14.5348411 30.80062236 -21.875 29.75 C-24.90715675 27.55168636 -25.69154398 26.30036806 -26.875 22.75 C-28.06060203 8.16709502 -28.06060203 8.16709502 -24.6875 3.9375 C-18.12500053 -1.16666625 -7.83927508 -3.40838047 0 0 Z " fill="#F6D753" transform="translate(337.875,199.25)"/>
<path d="M0 0 C4.16986111 -0.27799074 5.74992544 -0.29075121 9.2578125 2.27734375 C12.26464833 6.2502935 12.24850337 8.9378877 12.09375 13.78125 C12.10470703 14.52761719 12.11566406 15.27398437 12.12695312 16.04296875 C12.06078513 21.02762411 11.22316701 23.66412321 7.53125 27.28125 C2.60192802 30.73177539 -1.51619508 31.45237682 -7.46875 31.59375 C-8.5 31.63113281 -9.53125 31.66851562 -10.59375 31.70703125 C-14.17997534 31.17591907 -15.27102487 30.10471632 -17.46875 27.28125 C-19.49840313 21.1922906 -19.8992616 12.8603561 -17.48046875 6.80859375 C-14.78018375 3.2259621 -11.98268115 1.85617539 -7.65625 0.84375 C-5.10712661 0.50591437 -2.55451895 0.29102115 0 0 Z " fill="#CECECE" transform="translate(330.46875,241.71875)"/>
<path d="M0 0 C6.96948284 3.36457792 10.46991005 11.05498798 13 18 C13.47357029 20.67151482 13.74867156 23.29383562 14 26 C9.53476109 26.57364989 5.06902227 27.14318699 0.6027832 27.70898438 C-0.91526309 27.90187545 -2.43316924 28.09587291 -3.95092773 28.29101562 C-6.13749512 28.57195119 -8.32454216 28.84885234 -10.51171875 29.125 C-11.18587326 29.21249512 -11.86002777 29.29999023 -12.55461121 29.39013672 C-16.0595893 29.82851739 -19.46759025 30.09506906 -23 30 C-23.56194964 19.69758993 -20.32458566 12.08770544 -14 4 C-9.94180404 -0.49691985 -5.79895732 -1.2576052 0 0 Z " fill="#FAFAF4" transform="translate(335,40)"/>
<path d="M0 0 C2.89821248 2.89821248 2.36805159 5.87278512 2.375 9.75 C2.39949219 10.45382813 2.42398437 11.15765625 2.44921875 11.8828125 C2.47784771 17.01693866 1.40991909 19.95793905 -2 24 C-8.16470639 27.25048155 -14.04391576 28.62107895 -21 28 C-24.52748726 25.80511904 -26.50949591 23.84938882 -28 20 C-29.55640684 7.79666853 -29.55640684 7.79666853 -26.75 2.75390625 C-19.96109255 -3.54783423 -7.54353061 -5.60376559 0 0 Z " fill="#F6D754" transform="translate(382,195)"/>
<path d="M0 0 C2.71365386 1.87868344 3.75824415 3.04787935 4.5703125 6.24609375 C5.49050397 12.14368455 6.47171545 18.75788147 3.94140625 24.33203125 C1.01160507 28.10345554 -2.08713144 29.9817398 -6.78125 30.78515625 C-17.83130345 31.85514382 -17.83130345 31.85514382 -21.5625 29.125 C-24.32283557 25.04450394 -24.28662479 21.49591501 -24.375 16.6875 C-24.43107422 15.54764648 -24.43107422 15.54764648 -24.48828125 14.38476562 C-24.55326874 10.22917685 -24.37358905 8.4994506 -21.80859375 5.0703125 C-15.67463405 0.54875667 -7.50264054 -0.92137691 0 0 Z " fill="#CECECD" transform="translate(380,235)"/>
<path d="M0 0 C-2.47362816 1.64908544 -4.47437131 2.65514453 -7.1875 3.75 C-20.93750105 9.82402959 -28.54788874 20.95463755 -35 34 C-37 34 -37 34 -39.3125 31.75 C-40.199375 30.8425 -41.08625 29.935 -42 29 C-45.5004642 26.03806876 -49.16412753 23.49777742 -53 21 C-52.67 20.34 -52.34 19.68 -52 19 C-46.39 19 -40.78 19 -35 19 C-34.34 17.35 -33.68 15.7 -33 14 C-30.75 11.5 -30.75 11.5 -28 9 C-27.154375 8.154375 -26.30875 7.30875 -25.4375 6.4375 C-18.31321506 0.65016313 -8.88462475 -0.70762498 0 0 Z " fill="#C7412B" transform="translate(274,245)"/>
<path d="M0 0 C0.99 0.66 1.98 1.32 3 2 C3 2.66 3 3.32 3 4 C-0.64564198 4.48062972 -4.29154738 4.95923288 -7.9375 5.4375 C-8.95908203 5.57220703 -9.98066406 5.70691406 -11.03320312 5.84570312 C-17.01633244 6.62943572 -23.00023596 7.35560407 -29 8 C-29.33 3.05 -29.66 -1.9 -30 -7 C-17.99056424 -10.00235894 -10.34352604 -5.84685127 0 0 Z " fill="#882C21" transform="translate(400,70)"/>
<path d="M0 0 C0.66666667 1.33333333 1.33333333 2.66666667 2 4 C2.34546875 4.61875 2.6909375 5.2375 3.046875 5.875 C4.95409392 10.12716022 4.68491017 14.74020658 3.34765625 19.15234375 C1.11086579 24.15392241 -1.95676515 28.61385942 -7 31 C-14.2163641 32.10110978 -20.6127637 31.5649691 -27 28 C-26.67 27.34 -26.34 26.68 -26 26 C-25.41992188 26.03480469 -24.83984375 26.06960937 -24.2421875 26.10546875 C-19.02233682 26.28635466 -15.45233101 26.03568024 -11 23 C-6.98826077 19.08155703 -5.27731006 15.66191785 -3.69140625 10.32421875 C-2.64613368 6.81044936 -1.30724271 3.42373091 0 0 Z " fill="#8B3024" transform="translate(274,111)"/>
<path d="M0 0 C3.15069229 5.62623623 4.76172849 11.579717 4 18 C2.30390262 23.09618096 0.25488654 27.79423068 -4.5 30.625 C-10.40159197 32.98114889 -18.24766833 33.56854225 -24.16796875 31.09375 C-25.8125 30 -25.8125 30 -28 28 C-27.67 27.34 -27.34 26.68 -27 26 C-26.34 26.33 -25.68 26.66 -25 27 C-19.08066206 27.85965489 -14.62526171 27.07921107 -9.72265625 23.609375 C-4.96562669 19.16516598 -3.63685991 13.24424132 -2.4375 7.0546875 C-1.90794887 4.56768846 -1.0450939 2.31413648 0 0 Z " fill="#8C3226" transform="translate(182,125)"/>
<path d="M0 0 C0.66 0 1.32 0 2 0 C3.99455716 5.85901166 5.46571443 11.96730463 3.27734375 17.98828125 C0.22182945 23.76530626 -3.92225723 26.93915619 -10 29 C-14.05242955 29.50588805 -17.95386776 29.58946481 -22 29 C-24.75 26.5 -24.75 26.5 -26 24 C-24.2675 24.12375 -24.2675 24.12375 -22.5 24.25 C-16.23304876 24.2278161 -11.92756049 21.70342555 -7.3125 17.625 C-3.49953256 12.64479763 -1.89653326 5.89135864 0 0 Z " fill="#8C3023" transform="translate(366,102)"/>
<path d="M0 0 C-1.12035211 3.58512675 -2.75135881 5.97420735 -5.125 8.8125 C-7.30020295 11.63813129 -8.46232234 13.5950349 -8.625 17.1875 C-7.90872788 21.55675994 -7.53958691 23.30317188 -4 26 C-0.45180997 26.91944403 2.45667438 26.95942355 6 26 C10.37450132 22.61748597 13.42380044 17.84931681 16 13 C16.7974855 15.31995782 17.11434828 16.61982909 16.3984375 19 C13.42211701 24.81632096 10.07368214 28.34416482 4 31 C0.24853395 31.6479805 -3.39865813 31.81929119 -6.84765625 30.0546875 C-10.89010137 26.89621686 -12.58752234 23.94384743 -13.28515625 18.96484375 C-13.70167058 12.73848856 -11.94535976 8.76238249 -8 4 C-3.8 0 -3.8 0 0 0 Z " fill="#EFE8E2" transform="translate(162,122)"/>
<path d="M0 0 C-1.01576127 4.06304509 -2.45710522 6.67268987 -5.125 9.8125 C-8.01319779 13.51677333 -8.88161918 16.25257023 -8.5078125 20.94140625 C-7.59511782 24.64133007 -6.21262653 26.0330858 -3 28 C0.32097149 28.56487552 2.87552744 28.2572792 6 27 C8.75169861 24.61343063 10.82097175 21.90160756 13 19 C13.98173966 17.98206717 14.97576848 16.97516654 16 16 C15.22162763 21.86851803 12.17415848 25.01394738 8 29 C4.39961364 31.27392823 0.43623309 31.59065292 -3.77734375 31.52734375 C-7.85187995 30.56062602 -9.84644888 27.39953426 -12 24 C-13.87469743 20.25060513 -13.53120384 16.08251038 -13 12 C-10.71449835 6.42375532 -6.50346761 0 0 0 Z " fill="#F3EDE6" transform="translate(254,107)"/>
<path d="M0 0 C-0.54770906 3.90927342 -1.62297675 6.18694299 -4 9.3125 C-7.0534311 13.73445684 -8.08983915 16.60965095 -8 22 C-6.53799942 25.28950131 -4.6583481 27.59482791 -2 30 C-6.30614589 29.52153935 -8.24880549 28.34073619 -11 25 C-12.63614885 20.09155346 -12.49525341 15.12214148 -12 10 C-10.25 6.5 -10.25 6.5 -8 4 C-7.34 3.21625 -6.68 2.4325 -6 1.625 C-4 0 -4 0 0 0 Z " fill="#F7F0E9" transform="translate(346,96)"/>
<path d="M0 0 C-1.32 2.64 -2.64 5.28 -4 8 C-9.61 8 -15.22 8 -21 8 C-15.36682365 1.24018838 -15.36682365 1.24018838 -10.5 0.625 C-9.12328125 0.42777344 -9.12328125 0.42777344 -7.71875 0.2265625 C-5.12984984 0.01082082 -2.59636893 -0.04703567 0 0 Z " fill="#CDC5C3" transform="translate(243,256)"/>
<path d="M0 0 C-1.55366745 4.97173583 -4.49754 9.18561608 -8 13 C-8.99 13.33 -9.98 13.66 -11 14 C-11.33 16.31 -11.66 18.62 -12 21 C-12.33 21 -12.66 21 -13 21 C-13.64033064 14.8528259 -13.02412796 10.82638275 -9.43359375 5.73046875 C-6.60152835 2.31192659 -4.54384045 0 0 0 Z " fill="#EDD8D0" transform="translate(162,122)"/>
<path d="M0 0 C0.7974855 2.31995782 1.11434828 3.61982909 0.3984375 6 C-2.8007641 12.25187489 -6.21467455 15.6736027 -13 18 C-13 17.01 -13 16.02 -13 15 C-14.65 15 -16.3 15 -18 15 C-18 14.67 -18 14.34 -18 14 C-16.824375 14 -15.64875 14 -14.4375 14 C-9.49214021 13.40375095 -7.45782938 10.86256423 -4.4765625 7.078125 C-2.84698895 4.78465112 -1.32079253 2.48619771 0 0 Z " fill="#EDE7E2" transform="translate(178,135)"/>
<path d="M0 0 C0.33 0.99 0.66 1.98 1 3 C-1.98585993 8.49398226 -5.9639876 12.98799587 -12 15 C-13.56118428 15.06740865 -15.1250252 15.08514456 -16.6875 15.0625 C-17.89986328 15.04896484 -17.89986328 15.04896484 -19.13671875 15.03515625 C-20.05904297 15.01775391 -20.05904297 15.01775391 -21 15 C-18.03959132 13.02639421 -17.08744736 12.78342887 -13.75 12.375 C-6.84842823 10.99018217 -3.69933412 5.54900118 0 0 Z " fill="#DACEC8" transform="translate(269,123)"/>
<path d="M0 0 C1 2 1 2 1.25 5.25 C2.18778264 9.9389132 3.75477575 11.588354 7 15 C4.04969469 14.6721883 2.14823562 14.0936225 -0.375 12.5 C-2.58812491 9.09519245 -2.0390941 6.8339175 -1.45703125 2.92578125 C-1 1 -1 1 0 0 Z " fill="#E7E2DD" transform="translate(337,111)"/>
<path d="M0 0 C0.66 0.33 1.32 0.66 2 1 C0.04761147 3.00612399 -1.91137822 5.00492433 -3.875 7 C-4.43058594 7.57234375 -4.98617187 8.1446875 -5.55859375 8.734375 C-7.00134404 10.19450782 -8.4974374 11.60149298 -10 13 C-10.66 13 -11.32 13 -12 13 C-10.44997253 9.11602311 -7.99523379 6.97020381 -4.875 4.25 C-3.96492188 3.45078125 -3.05484375 2.6515625 -2.1171875 1.828125 C-1.06917969 0.92320313 -1.06917969 0.92320313 0 0 Z " fill="#9F9F9E" transform="translate(130,47)"/>
<path d="M0 0 C0.66 0.33 1.32 0.66 2 1 C-1.96 4.96 -5.92 8.92 -10 13 C-10.66 12.67 -11.32 12.34 -12 12 C-10.56665422 10.37133456 -9.12817021 8.74719006 -7.6875 7.125 C-6.88699219 6.22007813 -6.08648437 5.31515625 -5.26171875 4.3828125 C-3 2 -3 2 0 0 Z " fill="#9B9B9A" transform="translate(221,34)"/>
<path d="M0 0 C0.66 0.33 1.32 0.66 2 1 C-1.96 4.96 -5.92 8.92 -10 13 C-10.66 12.67 -11.32 12.34 -12 12 C-10.75479583 10.55834372 -9.50362077 9.12184348 -8.25 7.6875 C-7.55390625 6.88699219 -6.8578125 6.08648437 -6.140625 5.26171875 C-4.20854665 3.22034399 -2.30056874 1.60107149 0 0 Z " fill="#9D9D9B" transform="translate(313,24)"/>
<path d="M0 0 C0.66 1.32 1.32 2.64 2 4 C-1.96 5.98 -1.96 5.98 -6 8 C-6 7.01 -6 6.02 -6 5 C-7.65 5 -9.3 5 -11 5 C-11 4.67 -11 4.34 -11 4 C-9.741875 3.896875 -8.48375 3.79375 -7.1875 3.6875 C-4.39500343 3.35141192 -3.25566879 3.19974124 -1 1.4375 C-0.67 0.963125 -0.34 0.48875 0 0 Z " fill="#D8D1CC" transform="translate(171,145)"/>
<path d="M0 0 C0.66 0.33 1.32 0.66 2 1 C-1.63 4.63 -5.26 8.26 -9 12 C-9 9 -9 9 -6.75 6.5625 C-5.8425 5.716875 -4.935 4.87125 -4 4 C-3.236875 3.236875 -2.47375 2.47375 -1.6875 1.6875 C-1.130625 1.130625 -0.57375 0.57375 0 0 Z " fill="#C84F39" transform="translate(250,250)"/>
<path d="M0 0 C0.33 0.99 0.66 1.98 1 3 C-1.10889262 6.82724957 -2.79609368 9.49860488 -7 11 C-5.22054913 6.95579349 -2.60470327 3.53921513 0 0 Z " fill="#E5E1DB" transform="translate(269,123)"/>
<path d="M0 0 C0.66 0.33 1.32 0.66 2 1 C-1.63 4.63 -5.26 8.26 -9 12 C-9 9 -9 9 -6.75 6.5625 C-5.8425 5.716875 -4.935 4.87125 -4 4 C-3.236875 3.236875 -2.47375 2.47375 -1.6875 1.6875 C-1.130625 1.130625 -0.57375 0.57375 0 0 Z " fill="#B6331F" transform="translate(96,120)"/>
<path d="M0 0 C2.56616632 3.84924948 2.55097676 6.4349304 3 11 C1.68 10.67 0.36 10.34 -1 10 C-0.67 9.67 -0.34 9.34 0 9 C0.07179964 7.48071962 0.08392007 5.95832518 0.0625 4.4375 C0.05347656 3.61121094 0.04445313 2.78492188 0.03515625 1.93359375 C0.02355469 1.29550781 0.01195312 0.65742187 0 0 Z " fill="#D8D1CC" transform="translate(346,55)"/>
<path d="M0 0 C0.66 0 1.32 0 2 0 C0.4169423 4.2742558 -2.50568404 6.26531794 -6 9 C-4.4722133 5.56247993 -2.49818944 2.81046312 0 0 Z " fill="#E1E1DC" transform="translate(323,42)"/>
<path d="M0 0 C-1.49097658 3.7952131 -3.75700849 5.61042731 -7 8 C-4.18918919 0 -4.18918919 0 0 0 Z " fill="#F2DFD6" transform="translate(250,109)"/>
<path d="M0 0 C1.15941038 3.47823115 0.70820884 5.45895578 0 9 C-0.66 9 -1.32 9 -2 9 C-2.125 5.625 -2.125 5.625 -2 2 C-1.34 1.34 -0.68 0.68 0 0 Z " fill="#FCF9F3" transform="translate(152,134)"/>
<path d="M0 0 C1.37562854 1.28965176 2.70766393 2.62689293 4 4 C4 4.66 4 5.32 4 6 C1.97954558 5.39816251 -0.02111039 4.72693904 -2 4 C-2.33 3.34 -2.66 2.68 -3 2 C-2.34 2 -1.68 2 -1 2 C-0.67 1.34 -0.34 0.68 0 0 Z " fill="#DCDCDA" transform="translate(82,381)"/>
<path d="M0 0 C0.625 1.8125 0.625 1.8125 1 4 C-1 7 -1 7 -4 8 C-2.87548273 5.0280615 -1.77706209 2.66559313 0 0 Z " fill="#D5D0CA" transform="translate(178,135)"/>
<path d="M0 0 C0.66 0 1.32 0 2 0 C0.70700306 2.88437779 -0.65941363 4.87219421 -3 7 C-3.66 6.67 -4.32 6.34 -5 6 C-3.38405168 3.95880212 -1.7143618 1.95927063 0 0 Z " fill="#E1E1DD" transform="translate(230,53)"/>
</svg>
